<svg xmlns="http://www.w3.org/2000/svg" width="916" height="394" viewBox="0 0 916 394" font-family="ui-sans-serif,system-ui,sans-serif">
<rect x="12" y="14" width="440" height="366" rx="12" fill="#1c1924" stroke="#363142"/>
<text x="34" y="40" font-size="12" letter-spacing="1" fill="#978fac">DARK</text>
<text x="430" y="40" text-anchor="end" font-size="12.5" fill="#978fac" font-family="ui-monospace,monospace">#1c1924</text>
<line x1="28" y1="50" x2="436" y2="50" stroke="#363142"/>
<rect x="34" y="67" width="13" height="13" rx="3" fill="#bca0ee"/>
<text x="58" y="78" font-size="14.5" fill="#bca0ee">Amethyst</text>
<text x="430" y="78" text-anchor="end" font-size="13" fill="#978fac" font-family="ui-monospace,monospace">#bca0ee</text>
<rect x="34" y="101" width="13" height="13" rx="3" fill="#86a3e4"/>
<text x="58" y="112" font-size="14.5" fill="#86a3e4">Sapphire</text>
<text x="430" y="112" text-anchor="end" font-size="13" fill="#978fac" font-family="ui-monospace,monospace">#86a3e4</text>
<rect x="34" y="135" width="13" height="13" rx="3" fill="#e6cd7a"/>
<text x="58" y="146" font-size="14.5" fill="#e6cd7a">Citrine</text>
<text x="430" y="146" text-anchor="end" font-size="13" fill="#978fac" font-family="ui-monospace,monospace">#e6cd7a</text>
<rect x="34" y="169" width="13" height="13" rx="3" fill="#7eddd6"/>
<text x="58" y="180" font-size="14.5" fill="#7eddd6">Aquamarine</text>
<text x="430" y="180" text-anchor="end" font-size="13" fill="#978fac" font-family="ui-monospace,monospace">#7eddd6</text>
<rect x="34" y="203" width="13" height="13" rx="3" fill="#7dd980"/>
<text x="58" y="214" font-size="14.5" fill="#7dd980">Emerald</text>
<text x="430" y="214" text-anchor="end" font-size="13" fill="#978fac" font-family="ui-monospace,monospace">#7dd980</text>
<rect x="34" y="237" width="13" height="13" rx="3" fill="#eb9aaf"/>
<text x="58" y="248" font-size="14.5" fill="#eb9aaf">Ruby</text>
<text x="430" y="248" text-anchor="end" font-size="13" fill="#978fac" font-family="ui-monospace,monospace">#eb9aaf</text>
<rect x="34" y="271" width="13" height="13" rx="3" fill="#e1e9ef"/>
<text x="58" y="282" font-size="14.5" fill="#e1e9ef">Foreground</text>
<text x="430" y="282" text-anchor="end" font-size="13" fill="#978fac" font-family="ui-monospace,monospace">#e1e9ef</text>
<rect x="34" y="305" width="13" height="13" rx="3" fill="#a8afe6"/>
<text x="58" y="316" font-size="14.5" fill="#a8afe6">Periwinkle</text>
<text x="430" y="316" text-anchor="end" font-size="13" fill="#978fac" font-family="ui-monospace,monospace">#a8afe6</text>
<rect x="34" y="339" width="13" height="13" rx="3" fill="#9690a4"/>
<text x="58" y="350" font-size="14.5" fill="#9690a4">Comment</text>
<text x="430" y="350" text-anchor="end" font-size="13" fill="#978fac" font-family="ui-monospace,monospace">#9690a4</text>
<rect x="464" y="14" width="440" height="366" rx="12" fill="#f6f4fb" stroke="#d5d1e0"/>
<text x="486" y="40" font-size="12" letter-spacing="1" fill="#696080">LIGHT</text>
<text x="882" y="40" text-anchor="end" font-size="12.5" fill="#696080" font-family="ui-monospace,monospace">#f6f4fb</text>
<line x1="480" y1="50" x2="888" y2="50" stroke="#d5d1e0"/>
<rect x="486" y="67" width="13" height="13" rx="3" fill="#6e3dc2"/>
<text x="510" y="78" font-size="14.5" fill="#6e3dc2">Amethyst</text>
<text x="882" y="78" text-anchor="end" font-size="13" fill="#696080" font-family="ui-monospace,monospace">#6e3dc2</text>
<rect x="486" y="101" width="13" height="13" rx="3" fill="#315ab9"/>
<text x="510" y="112" font-size="14.5" fill="#315ab9">Sapphire</text>
<text x="882" y="112" text-anchor="end" font-size="13" fill="#696080" font-family="ui-monospace,monospace">#315ab9</text>
<rect x="486" y="135" width="13" height="13" rx="3" fill="#735c11"/>
<text x="510" y="146" font-size="14.5" fill="#735c11">Citrine</text>
<text x="882" y="146" text-anchor="end" font-size="13" fill="#696080" font-family="ui-monospace,monospace">#735c11</text>
<rect x="486" y="169" width="13" height="13" rx="3" fill="#196b66"/>
<text x="510" y="180" font-size="14.5" fill="#196b66">Aquamarine</text>
<text x="882" y="180" text-anchor="end" font-size="13" fill="#696080" font-family="ui-monospace,monospace">#196b66</text>
<rect x="486" y="203" width="13" height="13" rx="3" fill="#216e23"/>
<text x="510" y="214" font-size="14.5" fill="#216e23">Emerald</text>
<text x="882" y="214" text-anchor="end" font-size="13" fill="#696080" font-family="ui-monospace,monospace">#216e23</text>
<rect x="486" y="237" width="13" height="13" rx="3" fill="#b22a45"/>
<text x="510" y="248" font-size="14.5" fill="#b22a45">Ruby</text>
<text x="882" y="248" text-anchor="end" font-size="13" fill="#696080" font-family="ui-monospace,monospace">#b22a45</text>
<rect x="486" y="271" width="13" height="13" rx="3" fill="#312a41"/>
<text x="510" y="282" font-size="14.5" fill="#312a41">Foreground</text>
<text x="882" y="282" text-anchor="end" font-size="13" fill="#696080" font-family="ui-monospace,monospace">#312a41</text>
<rect x="486" y="305" width="13" height="13" rx="3" fill="#444d99"/>
<text x="510" y="316" font-size="14.5" fill="#444d99">Periwinkle</text>
<text x="882" y="316" text-anchor="end" font-size="13" fill="#696080" font-family="ui-monospace,monospace">#444d99</text>
<rect x="486" y="339" width="13" height="13" rx="3" fill="#665d79"/>
<text x="510" y="350" font-size="14.5" fill="#665d79">Comment</text>
<text x="882" y="350" text-anchor="end" font-size="13" fill="#696080" font-family="ui-monospace,monospace">#665d79</text>
</svg>