<svg xmlns="http://www.w3.org/2000/svg" width="1020" height="478" viewBox="0 0 1020 478">
<rect x="10.0" y="20.0" width="740.0" height="452" rx="13" fill="#000000" opacity="0.22"/>
<rect x="8" y="8" width="740" height="452" rx="13" fill="#f6f4fb" stroke="#d5d1e0"/>
<clipPath id="w1"><rect x="8" y="8" width="740" height="452" rx="13"/></clipPath><g clip-path="url(#w1)">
<rect x="8" y="8" width="740" height="32" fill="#eeebf4"/><line x1="8" y1="40" x2="748" y2="40" stroke="#d5d1e0"/>
<circle cx="23" cy="24.0" r="4.2" fill="#b22a45"/>
<circle cx="37" cy="24.0" r="4.2" fill="#735c11"/>
<circle cx="51" cy="24.0" r="4.2" fill="#216e23"/>
<rect x="156" y="17" width="150" height="14" rx="7" fill="none" stroke="#d5d1e0"/>
<circle cx="732" cy="24.0" r="7.5" fill="#bf6a25"/>
<circle cx="710" cy="24.0" r="2.4" fill="#6e6880"/><circle cx="702" cy="24.0" r="2.4" fill="#6e6880"/>
<rect x="8" y="40" width="108" height="402" fill="#eeebf4"/><line x1="116" y1="40" x2="116" y2="442" stroke="#d5d1e0"/>
<line x1="23" y1="53" x2="23" y2="70" stroke="#d3cfde"/>
<line x1="36" y1="53" x2="36" y2="70" stroke="#d3cfde"/>
<rect x="46" y="57" width="7" height="7" rx="2" fill="#696080"/>
<rect x="57.0" y="59.0" width="38.0" height="5" rx="3" fill="#696080"/>
<rect x="20" y="76" width="7" height="7" rx="2" fill="#315ab9"/>
<rect x="31.0" y="78.0" width="62.0" height="5" rx="3" fill="#696080"/>
<line x1="23" y1="91" x2="23" y2="108" stroke="#d3cfde"/>
<rect x="33" y="95" width="7" height="7" rx="2" fill="#735c11"/>
<rect x="44.0" y="97.0" width="46.0" height="5" rx="3" fill="#696080"/>
<rect x="20" y="114" width="7" height="7" rx="2" fill="#696080"/>
<rect x="31.0" y="116.0" width="65.0" height="5" rx="3" fill="#696080"/>
<rect x="12" y="129" width="100" height="17" rx="4" fill="#ded5ee"/>
<rect x="20" y="133" width="7" height="7" rx="2" fill="#6e3dc2"/>
<rect x="31.0" y="135.0" width="58.0" height="5" rx="3" fill="#312a41"/>
<line x1="23" y1="148" x2="23" y2="165" stroke="#d3cfde"/>
<rect x="33" y="152" width="7" height="7" rx="2" fill="#216e23"/>
<rect x="44.0" y="154.0" width="58.0" height="5" rx="3" fill="#696080"/>
<rect x="20" y="171" width="7" height="7" rx="2" fill="#735c11"/>
<rect x="31.0" y="173.0" width="62.0" height="5" rx="3" fill="#696080"/>
<line x1="23" y1="186" x2="23" y2="203" stroke="#d3cfde"/>
<rect x="33" y="190" width="7" height="7" rx="2" fill="#735c11"/>
<rect x="44.0" y="192.0" width="59.0" height="5" rx="3" fill="#696080"/>
<rect x="20" y="209" width="7" height="7" rx="2" fill="#216e23"/>
<rect x="31.0" y="211.0" width="40.0" height="5" rx="3" fill="#696080"/>
<line x1="23" y1="224" x2="23" y2="241" stroke="#d3cfde"/>
<rect x="33" y="228" width="7" height="7" rx="2" fill="#696080"/>
<rect x="44.0" y="230.0" width="34.0" height="5" rx="3" fill="#696080"/>
<rect x="20" y="247" width="7" height="7" rx="2" fill="#735c11"/>
<rect x="31.0" y="249.0" width="68.0" height="5" rx="3" fill="#696080"/>
<rect x="20" y="266" width="7" height="7" rx="2" fill="#315ab9"/>
<rect x="31.0" y="268.0" width="47.0" height="5" rx="3" fill="#696080"/>
<line x1="23" y1="281" x2="23" y2="298" stroke="#d3cfde"/>
<rect x="33" y="285" width="7" height="7" rx="2" fill="#735c11"/>
<rect x="44.0" y="287.0" width="34.0" height="5" rx="3" fill="#696080"/>
<line x1="23" y1="300" x2="23" y2="317" stroke="#d3cfde"/>
<line x1="36" y1="300" x2="36" y2="317" stroke="#d3cfde"/>
<rect x="46" y="304" width="7" height="7" rx="2" fill="#696080"/>
<rect x="57.0" y="306.0" width="46.0" height="5" rx="3" fill="#696080"/>
<line x1="23" y1="319" x2="23" y2="336" stroke="#d3cfde"/>
<rect x="33" y="323" width="7" height="7" rx="2" fill="#315ab9"/>
<rect x="44.0" y="325.0" width="51.0" height="5" rx="3" fill="#696080"/>
<rect x="20" y="342" width="7" height="7" rx="2" fill="#6e6880"/>
<rect x="31.0" y="344.0" width="48.0" height="5" rx="3" fill="#696080"/>
<rect x="20" y="361" width="7" height="7" rx="2" fill="#315ab9"/>
<rect x="31.0" y="363.0" width="52.0" height="5" rx="3" fill="#696080"/>
<rect x="20" y="380" width="7" height="7" rx="2" fill="#315ab9"/>
<rect x="31.0" y="382.0" width="69.0" height="5" rx="3" fill="#696080"/>
<line x1="506" y1="8" x2="506" y2="442" stroke="#d5d1e0"/>
<path d="M486 48.5 L487.3 51.7 L490.5 53 L487.3 54.3 L486 57.5 L484.7 54.3 L481.5 53 L484.7 51.7 Z" fill="#6e3dc2"/>
<circle cx="468" cy="53" r="3.2" fill="none" stroke="#6e6880" stroke-width="1.2"/>
<circle cx="452" cy="53" r="3.2" fill="none" stroke="#6e6880" stroke-width="1.2"/>
<circle cx="436" cy="53" r="3.2" fill="none" stroke="#6e6880" stroke-width="1.2"/>
<rect x="126.0" y="67.0" width="10.0" height="5" rx="3" fill="#6e6880" opacity="0.8"/>
<rect x="142.0" y="67.0" width="27.0" height="5" rx="3" fill="#6e3dc2"/>
<rect x="174.0" y="67.0" width="65.0" height="5" rx="3" fill="#444d99"/>
<rect x="245.0" y="67.0" width="8.0" height="5" rx="3" fill="#696080"/>
<rect x="261.0" y="67.0" width="26.0" height="5" rx="3" fill="#735c11"/>
<rect x="126.0" y="86.0" width="11.0" height="5" rx="3" fill="#6e6880" opacity="0.8"/>
<rect x="142.0" y="86.0" width="65.0" height="5" rx="3" fill="#444d99"/>
<rect x="213.0" y="86.0" width="6.0" height="5" rx="3" fill="#696080"/>
<rect x="225.0" y="86.0" width="59.0" height="5" rx="3" fill="#216e23"/>
<rect x="126.0" y="105.0" width="11.0" height="5" rx="3" fill="#6e6880" opacity="0.8"/>
<rect x="155.0" y="105.0" width="24.0" height="5" rx="3" fill="#315ab9"/>
<rect x="184.0" y="105.0" width="10.0" height="5" rx="3" fill="#696080"/>
<rect x="200.0" y="105.0" width="61.0" height="5" rx="3" fill="#444d99"/>
<rect x="269.0" y="105.0" width="8.0" height="5" rx="3" fill="#696080"/>
<rect x="126.0" y="124.0" width="11.0" height="5" rx="3" fill="#6e6880" opacity="0.8"/>
<rect x="155.0" y="124.0" width="31.0" height="5" rx="3" fill="#6e3dc2"/>
<rect x="193.0" y="124.0" width="45.0" height="5" rx="3" fill="#444d99"/>
<rect x="244.0" y="124.0" width="11.0" height="5" rx="3" fill="#696080"/>
<rect x="261.0" y="124.0" width="12.0" height="5" rx="3" fill="#196b66"/>
<rect x="126.0" y="143.0" width="11.0" height="5" rx="3" fill="#6e6880" opacity="0.8"/>
<rect x="168.0" y="143.0" width="30.0" height="5" rx="3" fill="#6e3dc2"/>
<rect x="206.0" y="143.0" width="48.0" height="5" rx="3" fill="#444d99"/>
<rect x="259.0" y="143.0" width="6.0" height="5" rx="3" fill="#696080"/>
<rect x="273.0" y="143.0" width="13.0" height="5" rx="3" fill="#196b66"/>
<rect x="126.0" y="162.0" width="8.0" height="5" rx="3" fill="#6e6880" opacity="0.8"/>
<rect x="155.0" y="162.0" width="33.0" height="5" rx="3" fill="#6e3dc2"/>
<rect x="193.0" y="162.0" width="72.0" height="5" rx="3" fill="#444d99"/>
<rect x="270.0" y="162.0" width="10.0" height="5" rx="3" fill="#696080"/>
<rect x="287.0" y="162.0" width="16.0" height="5" rx="3" fill="#196b66"/>
<rect x="126.0" y="181.0" width="11.0" height="5" rx="3" fill="#6e6880" opacity="0.8"/>
<rect x="142.0" y="181.0" width="34.0" height="5" rx="3" fill="#6e3dc2"/>
<rect x="181.0" y="181.0" width="35.0" height="5" rx="3" fill="#444d99"/>
<rect x="223.0" y="181.0" width="9.0" height="5" rx="3" fill="#696080"/>
<rect x="237.0" y="181.0" width="11.0" height="5" rx="3" fill="#196b66"/>
<rect x="126.0" y="200.0" width="12.0" height="5" rx="3" fill="#6e6880" opacity="0.8"/>
<rect x="155.0" y="200.0" width="34.0" height="5" rx="3" fill="#6e3dc2"/>
<rect x="196.0" y="200.0" width="44.0" height="5" rx="3" fill="#735c11"/>
<rect x="248.0" y="200.0" width="11.0" height="5" rx="3" fill="#696080"/>
<rect x="266.0" y="200.0" width="31.0" height="5" rx="3" fill="#312a41"/>
<rect x="126.0" y="219.0" width="9.0" height="5" rx="3" fill="#6e6880" opacity="0.8"/>
<rect x="142.0" y="219.0" width="23.0" height="5" rx="3" fill="#6e3dc2"/>
<rect x="173.0" y="219.0" width="23.0" height="5" rx="3" fill="#315ab9"/>
<rect x="202.0" y="219.0" width="8.0" height="5" rx="3" fill="#696080"/>
<rect x="216.0" y="219.0" width="45.0" height="5" rx="3" fill="#312a41"/>
<rect x="126.0" y="238.0" width="10.0" height="5" rx="3" fill="#6e6880" opacity="0.8"/>
<rect x="155.0" y="238.0" width="22.0" height="5" rx="3" fill="#6e3dc2"/>
<rect x="183.0" y="238.0" width="58.0" height="5" rx="3" fill="#444d99"/>
<rect x="249.0" y="238.0" width="10.0" height="5" rx="3" fill="#696080"/>
<rect x="266.0" y="238.0" width="13.0" height="5" rx="3" fill="#196b66"/>
<rect x="126.0" y="257.0" width="13.0" height="5" rx="3" fill="#6e6880" opacity="0.8"/>
<rect x="142.0" y="257.0" width="28.0" height="5" rx="3" fill="#6e3dc2"/>
<rect x="178.0" y="257.0" width="33.0" height="5" rx="3" fill="#735c11"/>
<rect x="219.0" y="257.0" width="7.0" height="5" rx="3" fill="#696080"/>
<rect x="232.0" y="257.0" width="35.0" height="5" rx="3" fill="#312a41"/>
<rect x="126.0" y="276.0" width="8.0" height="5" rx="3" fill="#6e6880" opacity="0.8"/>
<rect x="155.0" y="276.0" width="27.0" height="5" rx="3" fill="#6e3dc2"/>
<rect x="187.0" y="276.0" width="37.0" height="5" rx="3" fill="#315ab9"/>
<rect x="230.0" y="276.0" width="8.0" height="5" rx="3" fill="#696080"/>
<rect x="245.0" y="276.0" width="30.0" height="5" rx="3" fill="#312a41"/>
<rect x="126.0" y="295.0" width="10.0" height="5" rx="3" fill="#6e6880" opacity="0.8"/>
<rect x="168.0" y="295.0" width="31.0" height="5" rx="3" fill="#6e3dc2"/>
<rect x="206.0" y="295.0" width="26.0" height="5" rx="3" fill="#735c11"/>
<rect x="237.0" y="295.0" width="9.0" height="5" rx="3" fill="#696080"/>
<rect x="254.0" y="295.0" width="55.0" height="5" rx="3" fill="#312a41"/>
<rect x="116" y="307" width="390" height="18" fill="#eee9f8"/>
<rect x="126.0" y="314.0" width="10.0" height="5" rx="3" fill="#6e6880" opacity="0.8"/>
<rect x="155.0" y="314.0" width="35.0" height="5" rx="3" fill="#6e3dc2"/>
<rect x="198.0" y="314.0" width="33.0" height="5" rx="3" fill="#444d99"/>
<rect x="237.0" y="314.0" width="6.0" height="5" rx="3" fill="#696080"/>
<rect x="249.0" y="314.0" width="36.0" height="5" rx="3" fill="#735c11"/>
<rect x="126.0" y="333.0" width="7.0" height="5" rx="3" fill="#6e6880" opacity="0.8"/>
<rect x="155.0" y="333.0" width="68.0" height="5" rx="3" fill="#444d99"/>
<rect x="228.0" y="333.0" width="6.0" height="5" rx="3" fill="#696080"/>
<rect x="239.0" y="333.0" width="72.0" height="5" rx="3" fill="#216e23"/>
<rect x="126.0" y="352.0" width="11.0" height="5" rx="3" fill="#6e6880" opacity="0.8"/>
<rect x="168.0" y="352.0" width="31.0" height="5" rx="3" fill="#6e3dc2"/>
<rect x="204.0" y="352.0" width="34.0" height="5" rx="3" fill="#444d99"/>
<rect x="244.0" y="352.0" width="10.0" height="5" rx="3" fill="#696080"/>
<rect x="262.0" y="352.0" width="26.0" height="5" rx="3" fill="#735c11"/>
<rect x="126.0" y="371.0" width="9.0" height="5" rx="3" fill="#6e6880" opacity="0.8"/>
<rect x="181.0" y="371.0" width="31.0" height="5" rx="3" fill="#6e3dc2"/>
<rect x="220.0" y="371.0" width="25.0" height="5" rx="3" fill="#735c11"/>
<rect x="250.0" y="371.0" width="9.0" height="5" rx="3" fill="#696080"/>
<rect x="267.0" y="371.0" width="60.0" height="5" rx="3" fill="#312a41"/>
<rect x="126.0" y="390.0" width="9.0" height="5" rx="3" fill="#6e6880" opacity="0.8"/>
<rect x="181.0" y="390.0" width="24.0" height="5" rx="3" fill="#6e3dc2"/>
<rect x="210.0" y="390.0" width="51.0" height="5" rx="3" fill="#444d99"/>
<rect x="268.0" y="390.0" width="9.0" height="5" rx="3" fill="#696080"/>
<rect x="283.0" y="390.0" width="38.0" height="5" rx="3" fill="#735c11"/>
<rect x="126.0" y="409.0" width="8.0" height="5" rx="3" fill="#6e6880" opacity="0.8"/>
<rect x="181.0" y="409.0" width="31.0" height="5" rx="3" fill="#6e3dc2"/>
<rect x="218.0" y="409.0" width="44.0" height="5" rx="3" fill="#735c11"/>
<rect x="267.0" y="409.0" width="10.0" height="5" rx="3" fill="#696080"/>
<rect x="284.0" y="409.0" width="71.0" height="5" rx="3" fill="#312a41"/>
<rect x="506" y="40" width="242" height="402" fill="#f6f4fb"/>
<path d="M524 53 L525.4 56.6 L529 58 L525.4 59.4 L524 63 L522.6 59.4 L519 58 L522.6 56.6 Z" fill="#6e3dc2"/>
<rect x="536.0" y="55.0" width="52.0" height="6" rx="3" fill="#312a41"/>
<circle cx="718" cy="58" r="2.2" fill="#6e6880"/><circle cx="726" cy="58" r="2.2" fill="#6e6880"/>
<line x1="506" y1="76" x2="748" y2="76" stroke="#d5d1e0"/>
<circle cx="528" cy="95" r="6" fill="#bf6a25"/>
<rect x="544.0" y="91.0" width="173.0" height="5" rx="3" fill="#312a41"/>
<rect x="544.0" y="103.0" width="112.8" height="5" rx="3" fill="#312a41"/>
<path d="M528 124 L529.4 127.6 L533 129 L529.4 130.4 L528 134 L526.6 130.4 L523 129 L526.6 127.6 Z" fill="#6e3dc2"/>
<rect x="544.0" y="125.0" width="180.5" height="5" rx="3" fill="#312a41"/>
<rect x="544.0" y="137.0" width="150.4" height="5" rx="3" fill="#312a41"/>
<rect x="544" y="156" width="188" height="58" rx="6" fill="#eeebf4" stroke="#d5d1e0"/>
<rect x="556.0" y="171.0" width="33.0" height="5" rx="3" fill="#6e3dc2"/>
<rect x="596.0" y="171.0" width="33.0" height="5" rx="3" fill="#735c11"/>
<rect x="636.0" y="171.0" width="7.0" height="5" rx="3" fill="#696080"/>
<rect x="650.0" y="171.0" width="37.0" height="5" rx="3" fill="#312a41"/>
<rect x="556.0" y="186.0" width="32.0" height="5" rx="3" fill="#6e3dc2"/>
<rect x="596.0" y="186.0" width="30.0" height="5" rx="3" fill="#315ab9"/>
<rect x="633.0" y="186.0" width="11.0" height="5" rx="3" fill="#696080"/>
<rect x="652.0" y="186.0" width="38.0" height="5" rx="3" fill="#312a41"/>
<rect x="556.0" y="201.0" width="26.0" height="5" rx="3" fill="#6e3dc2"/>
<rect x="588.0" y="201.0" width="39.0" height="5" rx="3" fill="#315ab9"/>
<rect x="633.0" y="201.0" width="8.0" height="5" rx="3" fill="#696080"/>
<rect x="646.0" y="201.0" width="70.0" height="5" rx="3" fill="#312a41"/>
<rect x="544.0" y="226.0" width="131.6" height="5" rx="3" fill="#312a41"/>
<rect x="518" y="384" width="218" height="40" rx="9" fill="#ebe6f7" stroke="#d5d1e0"/>
<rect x="530.0" y="396.0" width="135.2" height="6" rx="3" fill="#6e6880" opacity="0.7"/>
<rect x="530" y="430" width="32" height="9" rx="4" fill="none" stroke="#d5d1e0"/>
<rect x="568" y="430" width="32" height="9" rx="4" fill="none" stroke="#d5d1e0"/>
<rect x="606" y="430" width="32" height="9" rx="4" fill="none" stroke="#d5d1e0"/>
<path d="M726 430 l9 4.5 l-9 4.5 z" fill="#6e3dc2"/>
<rect x="8" y="442" width="740" height="18" fill="#eeebf4"/><line x1="8" y1="442" x2="748" y2="442" stroke="#d5d1e0"/>
<circle cx="21" cy="451.0" r="3" fill="#6e3dc2"/>
<rect x="28.0" y="448.0" width="26.0" height="5" rx="3" fill="#6e3dc2"/>
<rect x="62.0" y="448.0" width="14.0" height="5" rx="3" fill="#b22a45"/>
<rect x="268.0" y="448.0" width="30.0" height="5" rx="3" fill="#696080"/>
<rect x="304.0" y="448.0" width="40.0" height="5" rx="3" fill="#696080"/>
<rect x="728" y="447.0" width="9" height="9" rx="2" fill="none" stroke="#6e6880" stroke-width="1.1"/>
<rect x="712" y="447.0" width="9" height="9" rx="2" fill="none" stroke="#6e6880" stroke-width="1.1"/>
<rect x="696" y="447.0" width="9" height="9" rx="2" fill="none" stroke="#6e6880" stroke-width="1.1"/>
<rect x="680" y="447.0" width="9" height="9" rx="2" fill="none" stroke="#6e6880" stroke-width="1.1"/>
</g>
<rect x="274.0" y="30.0" width="740.0" height="452" rx="13" fill="#000000" opacity="0.22"/>
<rect x="272" y="18" width="740" height="452" rx="13" fill="#1c1924" stroke="#363142"/>
<clipPath id="w2"><rect x="272" y="18" width="740" height="452" rx="13"/></clipPath><g clip-path="url(#w2)">
<rect x="272" y="18" width="740" height="32" fill="#211e2a"/><line x1="272" y1="50" x2="1012" y2="50" stroke="#363142"/>
<circle cx="287" cy="34.0" r="4.2" fill="#eb9aaf"/>
<circle cx="301" cy="34.0" r="4.2" fill="#e6cd7a"/>
<circle cx="315" cy="34.0" r="4.2" fill="#7dd980"/>
<rect x="420" y="27" width="150" height="14" rx="7" fill="none" stroke="#363142"/>
<circle cx="996" cy="34.0" r="7.5" fill="#efa880"/>
<circle cx="974" cy="34.0" r="2.4" fill="#8b84a0"/><circle cx="966" cy="34.0" r="2.4" fill="#8b84a0"/>
<rect x="272" y="50" width="108" height="402" fill="#211e2a"/><line x1="380" y1="50" x2="380" y2="452" stroke="#363142"/>
<rect x="284" y="67" width="7" height="7" rx="2" fill="#978fac"/>
<rect x="295.0" y="69.0" width="57.0" height="5" rx="3" fill="#978fac"/>
<rect x="284" y="86" width="7" height="7" rx="2" fill="#e6cd7a"/>
<rect x="295.0" y="88.0" width="53.0" height="5" rx="3" fill="#978fac"/>
<line x1="287" y1="101" x2="287" y2="118" stroke="#2e2a3b"/>
<rect x="297" y="105" width="7" height="7" rx="2" fill="#7dd980"/>
<rect x="308.0" y="107.0" width="40.0" height="5" rx="3" fill="#978fac"/>
<line x1="287" y1="120" x2="287" y2="137" stroke="#2e2a3b"/>
<line x1="300" y1="120" x2="300" y2="137" stroke="#2e2a3b"/>
<rect x="276" y="120" width="100" height="17" rx="4" fill="#3a334a"/>
<rect x="310" y="124" width="7" height="7" rx="2" fill="#bca0ee"/>
<rect x="321.0" y="126.0" width="34.0" height="5" rx="3" fill="#e1e9ef"/>
<line x1="287" y1="139" x2="287" y2="156" stroke="#2e2a3b"/>
<line x1="300" y1="139" x2="300" y2="156" stroke="#2e2a3b"/>
<rect x="310" y="143" width="7" height="7" rx="2" fill="#e6cd7a"/>
<rect x="321.0" y="145.0" width="36.0" height="5" rx="3" fill="#978fac"/>
<line x1="287" y1="158" x2="287" y2="175" stroke="#2e2a3b"/>
<rect x="297" y="162" width="7" height="7" rx="2" fill="#e6cd7a"/>
<rect x="308.0" y="164.0" width="46.0" height="5" rx="3" fill="#978fac"/>
<line x1="287" y1="177" x2="287" y2="194" stroke="#2e2a3b"/>
<line x1="300" y1="177" x2="300" y2="194" stroke="#2e2a3b"/>
<rect x="310" y="181" width="7" height="7" rx="2" fill="#8b84a0"/>
<rect x="321.0" y="183.0" width="42.0" height="5" rx="3" fill="#978fac"/>
<line x1="287" y1="196" x2="287" y2="213" stroke="#2e2a3b"/>
<rect x="297" y="200" width="7" height="7" rx="2" fill="#7dd980"/>
<rect x="308.0" y="202.0" width="42.0" height="5" rx="3" fill="#978fac"/>
<rect x="284" y="219" width="7" height="7" rx="2" fill="#978fac"/>
<rect x="295.0" y="221.0" width="57.0" height="5" rx="3" fill="#978fac"/>
<line x1="287" y1="234" x2="287" y2="251" stroke="#2e2a3b"/>
<rect x="297" y="238" width="7" height="7" rx="2" fill="#8b84a0"/>
<rect x="308.0" y="240.0" width="46.0" height="5" rx="3" fill="#978fac"/>
<line x1="287" y1="253" x2="287" y2="270" stroke="#2e2a3b"/>
<rect x="297" y="257" width="7" height="7" rx="2" fill="#7dd980"/>
<rect x="308.0" y="259.0" width="39.0" height="5" rx="3" fill="#978fac"/>
<line x1="287" y1="272" x2="287" y2="289" stroke="#2e2a3b"/>
<line x1="300" y1="272" x2="300" y2="289" stroke="#2e2a3b"/>
<rect x="310" y="276" width="7" height="7" rx="2" fill="#978fac"/>
<rect x="321.0" y="278.0" width="37.0" height="5" rx="3" fill="#978fac"/>
<rect x="284" y="295" width="7" height="7" rx="2" fill="#978fac"/>
<rect x="295.0" y="297.0" width="45.0" height="5" rx="3" fill="#978fac"/>
<line x1="287" y1="310" x2="287" y2="327" stroke="#2e2a3b"/>
<rect x="297" y="314" width="7" height="7" rx="2" fill="#978fac"/>
<rect x="308.0" y="316.0" width="38.0" height="5" rx="3" fill="#978fac"/>
<line x1="287" y1="329" x2="287" y2="346" stroke="#2e2a3b"/>
<line x1="300" y1="329" x2="300" y2="346" stroke="#2e2a3b"/>
<rect x="310" y="333" width="7" height="7" rx="2" fill="#7dd980"/>
<rect x="321.0" y="335.0" width="39.0" height="5" rx="3" fill="#978fac"/>
<line x1="287" y1="348" x2="287" y2="365" stroke="#2e2a3b"/>
<line x1="300" y1="348" x2="300" y2="365" stroke="#2e2a3b"/>
<rect x="310" y="352" width="7" height="7" rx="2" fill="#e6cd7a"/>
<rect x="321.0" y="354.0" width="42.0" height="5" rx="3" fill="#978fac"/>
<rect x="284" y="371" width="7" height="7" rx="2" fill="#86a3e4"/>
<rect x="295.0" y="373.0" width="60.0" height="5" rx="3" fill="#978fac"/>
<line x1="287" y1="386" x2="287" y2="403" stroke="#2e2a3b"/>
<line x1="300" y1="386" x2="300" y2="403" stroke="#2e2a3b"/>
<rect x="310" y="390" width="7" height="7" rx="2" fill="#8b84a0"/>
<rect x="321.0" y="392.0" width="46.0" height="5" rx="3" fill="#978fac"/>
<line x1="770" y1="18" x2="770" y2="452" stroke="#363142"/>
<path d="M750 58.5 L751.3 61.7 L754.5 63 L751.3 64.3 L750 67.5 L748.7 64.3 L745.5 63 L748.7 61.7 Z" fill="#bca0ee"/>
<circle cx="732" cy="63" r="3.2" fill="none" stroke="#8b84a0" stroke-width="1.2"/>
<circle cx="716" cy="63" r="3.2" fill="none" stroke="#8b84a0" stroke-width="1.2"/>
<circle cx="700" cy="63" r="3.2" fill="none" stroke="#8b84a0" stroke-width="1.2"/>
<rect x="390.0" y="77.0" width="9.0" height="5" rx="3" fill="#8b84a0" opacity="0.8"/>
<rect x="406.0" y="77.0" width="46.0" height="5" rx="3" fill="#a9b6e6"/>
<rect x="459.0" y="77.0" width="11.0" height="5" rx="3" fill="#978fac"/>
<rect x="476.0" y="77.0" width="46.0" height="5" rx="3" fill="#7dd980"/>
<rect x="390.0" y="96.0" width="8.0" height="5" rx="3" fill="#8b84a0" opacity="0.8"/>
<rect x="419.0" y="96.0" width="22.0" height="5" rx="3" fill="#bca0ee"/>
<rect x="446.0" y="96.0" width="68.0" height="5" rx="3" fill="#a9b6e6"/>
<rect x="521.0" y="96.0" width="6.0" height="5" rx="3" fill="#978fac"/>
<rect x="532.0" y="96.0" width="30.0" height="5" rx="3" fill="#e6cd7a"/>
<rect x="390.0" y="115.0" width="13.0" height="5" rx="3" fill="#8b84a0" opacity="0.8"/>
<rect x="419.0" y="115.0" width="32.0" height="5" rx="3" fill="#bca0ee"/>
<rect x="459.0" y="115.0" width="68.0" height="5" rx="3" fill="#a9b6e6"/>
<rect x="532.0" y="115.0" width="11.0" height="5" rx="3" fill="#978fac"/>
<rect x="548.0" y="115.0" width="20.0" height="5" rx="3" fill="#7eddd6"/>
<rect x="390.0" y="134.0" width="8.0" height="5" rx="3" fill="#8b84a0" opacity="0.8"/>
<rect x="419.0" y="134.0" width="35.0" height="5" rx="3" fill="#bca0ee"/>
<rect x="460.0" y="134.0" width="47.0" height="5" rx="3" fill="#a9b6e6"/>
<rect x="515.0" y="134.0" width="10.0" height="5" rx="3" fill="#978fac"/>
<rect x="531.0" y="134.0" width="37.0" height="5" rx="3" fill="#e6cd7a"/>
<rect x="390.0" y="153.0" width="11.0" height="5" rx="3" fill="#8b84a0" opacity="0.8"/>
<rect x="419.0" y="153.0" width="36.0" height="5" rx="3" fill="#a9b6e6"/>
<rect x="460.0" y="153.0" width="6.0" height="5" rx="3" fill="#978fac"/>
<rect x="473.0" y="153.0" width="53.0" height="5" rx="3" fill="#7dd980"/>
<rect x="390.0" y="172.0" width="7.0" height="5" rx="3" fill="#8b84a0" opacity="0.8"/>
<rect x="432.0" y="172.0" width="33.0" height="5" rx="3" fill="#bca0ee"/>
<rect x="470.0" y="172.0" width="38.0" height="5" rx="3" fill="#86a3e4"/>
<rect x="513.0" y="172.0" width="9.0" height="5" rx="3" fill="#978fac"/>
<rect x="530.0" y="172.0" width="40.0" height="5" rx="3" fill="#e1e9ef"/>
<rect x="390.0" y="191.0" width="10.0" height="5" rx="3" fill="#8b84a0" opacity="0.8"/>
<rect x="445.0" y="191.0" width="61.0" height="5" rx="3" fill="#a9b6e6"/>
<rect x="514.0" y="191.0" width="9.0" height="5" rx="3" fill="#978fac"/>
<rect x="531.0" y="191.0" width="74.0" height="5" rx="3" fill="#7dd980"/>
<rect x="390.0" y="210.0" width="9.0" height="5" rx="3" fill="#8b84a0" opacity="0.8"/>
<rect x="445.0" y="210.0" width="32.0" height="5" rx="3" fill="#bca0ee"/>
<rect x="483.0" y="210.0" width="58.0" height="5" rx="3" fill="#a9b6e6"/>
<rect x="549.0" y="210.0" width="6.0" height="5" rx="3" fill="#978fac"/>
<rect x="561.0" y="210.0" width="18.0" height="5" rx="3" fill="#7eddd6"/>
<rect x="380" y="222" width="390" height="18" fill="#292434"/>
<rect x="390.0" y="229.0" width="11.0" height="5" rx="3" fill="#8b84a0" opacity="0.8"/>
<rect x="445.0" y="229.0" width="20.0" height="5" rx="3" fill="#bca0ee"/>
<rect x="473.0" y="229.0" width="57.0" height="5" rx="3" fill="#a9b6e6"/>
<rect x="535.0" y="229.0" width="8.0" height="5" rx="3" fill="#978fac"/>
<rect x="550.0" y="229.0" width="18.0" height="5" rx="3" fill="#7eddd6"/>
<rect x="390.0" y="248.0" width="9.0" height="5" rx="3" fill="#8b84a0" opacity="0.8"/>
<rect x="432.0" y="248.0" width="63.0" height="5" rx="3" fill="#a9b6e6"/>
<rect x="501.0" y="248.0" width="6.0" height="5" rx="3" fill="#978fac"/>
<rect x="515.0" y="248.0" width="52.0" height="5" rx="3" fill="#7dd980"/>
<rect x="390.0" y="267.0" width="10.0" height="5" rx="3" fill="#8b84a0" opacity="0.8"/>
<rect x="432.0" y="267.0" width="21.0" height="5" rx="3" fill="#bca0ee"/>
<rect x="459.0" y="267.0" width="49.0" height="5" rx="3" fill="#a9b6e6"/>
<rect x="513.0" y="267.0" width="6.0" height="5" rx="3" fill="#978fac"/>
<rect x="526.0" y="267.0" width="38.0" height="5" rx="3" fill="#e6cd7a"/>
<rect x="390.0" y="286.0" width="9.0" height="5" rx="3" fill="#8b84a0" opacity="0.8"/>
<rect x="419.0" y="286.0" width="21.0" height="5" rx="3" fill="#bca0ee"/>
<rect x="446.0" y="286.0" width="42.0" height="5" rx="3" fill="#a9b6e6"/>
<rect x="493.0" y="286.0" width="7.0" height="5" rx="3" fill="#978fac"/>
<rect x="507.0" y="286.0" width="38.0" height="5" rx="3" fill="#e6cd7a"/>
<rect x="390.0" y="305.0" width="8.0" height="5" rx="3" fill="#8b84a0" opacity="0.8"/>
<rect x="419.0" y="305.0" width="26.0" height="5" rx="3" fill="#bca0ee"/>
<rect x="452.0" y="305.0" width="31.0" height="5" rx="3" fill="#86a3e4"/>
<rect x="490.0" y="305.0" width="6.0" height="5" rx="3" fill="#978fac"/>
<rect x="502.0" y="305.0" width="62.0" height="5" rx="3" fill="#e1e9ef"/>
<rect x="390.0" y="324.0" width="9.0" height="5" rx="3" fill="#8b84a0" opacity="0.8"/>
<rect x="432.0" y="324.0" width="32.0" height="5" rx="3" fill="#bca0ee"/>
<rect x="470.0" y="324.0" width="54.0" height="5" rx="3" fill="#a9b6e6"/>
<rect x="531.0" y="324.0" width="9.0" height="5" rx="3" fill="#978fac"/>
<rect x="545.0" y="324.0" width="14.0" height="5" rx="3" fill="#7eddd6"/>
<line x1="380" y1="360" x2="770" y2="360" stroke="#363142"/>
<rect x="394.0" y="375.0" width="44.0" height="5" rx="3" fill="#8b84a0"/>
<rect x="390" y="400" width="350" height="26" rx="4" fill="#2f3f36"/>
<rect x="394.0" y="392.0" width="10.0" height="5" rx="3" fill="#7dd980"/>
<rect x="410.0" y="392.0" width="28.0" height="5" rx="3" fill="#86a3e4"/>
<rect x="444.0" y="392.0" width="9.0" height="5" rx="3" fill="#978fac"/>
<rect x="458.0" y="392.0" width="38.0" height="5" rx="3" fill="#a9b6e6"/>
<rect x="504.0" y="392.0" width="6.0" height="5" rx="3" fill="#978fac"/>
<rect x="394.0" y="410.0" width="10.0" height="5" rx="3" fill="#7dd980"/>
<rect x="410.0" y="410.0" width="35.0" height="5" rx="3" fill="#86a3e4"/>
<rect x="451.0" y="410.0" width="11.0" height="5" rx="3" fill="#978fac"/>
<rect x="470.0" y="410.0" width="42.0" height="5" rx="3" fill="#a9b6e6"/>
<rect x="517.0" y="410.0" width="11.0" height="5" rx="3" fill="#978fac"/>
<rect x="394.0" y="428.0" width="10.0" height="5" rx="3" fill="#7dd980"/>
<rect x="410.0" y="428.0" width="24.0" height="5" rx="3" fill="#bca0ee"/>
<rect x="440.0" y="428.0" width="41.0" height="5" rx="3" fill="#86a3e4"/>
<rect x="489.0" y="428.0" width="9.0" height="5" rx="3" fill="#978fac"/>
<rect x="505.0" y="428.0" width="45.0" height="5" rx="3" fill="#e1e9ef"/>
<rect x="380" y="50" width="390" height="402" fill="#000000" opacity="0.16"/>
<rect x="452.0" y="80" width="250" height="136" rx="9" fill="#000000" opacity="0.30"/>
<rect x="450.0" y="74" width="250" height="136" rx="9" fill="#2a2635" stroke="#363142"/>
<circle cx="468.0" cy="95" r="4" fill="none" stroke="#978fac" stroke-width="1.3"/><line x1="471.0" y1="98" x2="474.0" y2="101" stroke="#978fac" stroke-width="1.3" stroke-linecap="round"/>
<rect x="481.0" y="91.0" width="125.0" height="6" rx="3" fill="#978fac"/>
<rect x="609.0" y="86" width="2" height="14" fill="#bca0ee"/>
<line x1="450.0" y1="111" x2="700.0" y2="111" stroke="#363142"/>
<rect x="455.0" y="115" width="240" height="23" rx="5" fill="#413a53"/>
<rect x="465.0" y="121" width="9" height="11" rx="2" fill="none" stroke="#86a3e4" stroke-width="1.3"/>
<rect x="481.0" y="123.0" width="103.0" height="6" rx="3" fill="#e1e9ef"/>
<rect x="642.0" y="123.0" width="38.0" height="5" rx="3" fill="#8b84a0" opacity="0.8"/>
<rect x="465.0" y="149" width="9" height="11" rx="2" fill="none" stroke="#e6cd7a" stroke-width="1.3"/>
<rect x="481.0" y="151.0" width="90.0" height="6" rx="3" fill="#978fac"/>
<rect x="642.0" y="151.0" width="36.0" height="5" rx="3" fill="#8b84a0" opacity="0.8"/>
<rect x="465.0" y="177" width="9" height="11" rx="2" fill="none" stroke="#7dd980" stroke-width="1.3"/>
<rect x="481.0" y="179.0" width="125.0" height="6" rx="3" fill="#978fac"/>
<rect x="642.0" y="179.0" width="38.0" height="5" rx="3" fill="#8b84a0" opacity="0.8"/>
<rect x="770" y="50" width="242" height="402" fill="#1c1924"/>
<path d="M788 63 L789.4 66.6 L793 68 L789.4 69.4 L788 73 L786.6 69.4 L783 68 L786.6 66.6 Z" fill="#bca0ee"/>
<rect x="800.0" y="65.0" width="52.0" height="6" rx="3" fill="#e1e9ef"/>
<circle cx="982" cy="68" r="2.2" fill="#8b84a0"/><circle cx="990" cy="68" r="2.2" fill="#8b84a0"/>
<line x1="770" y1="86" x2="1012" y2="86" stroke="#363142"/>
<circle cx="792" cy="105" r="6" fill="#efa880"/>
<rect x="808.0" y="101.0" width="173.0" height="5" rx="3" fill="#e1e9ef"/>
<rect x="808.0" y="113.0" width="112.8" height="5" rx="3" fill="#e1e9ef"/>
<path d="M792 134 L793.4 137.6 L797 139 L793.4 140.4 L792 144 L790.6 140.4 L787 139 L790.6 137.6 Z" fill="#bca0ee"/>
<rect x="808.0" y="135.0" width="180.5" height="5" rx="3" fill="#e1e9ef"/>
<rect x="808.0" y="147.0" width="150.4" height="5" rx="3" fill="#e1e9ef"/>
<rect x="808" y="166" width="188" height="58" rx="6" fill="#211e2a" stroke="#363142"/>
<rect x="820.0" y="181.0" width="31.0" height="5" rx="3" fill="#bca0ee"/>
<rect x="856.0" y="181.0" width="29.0" height="5" rx="3" fill="#e6cd7a"/>
<rect x="890.0" y="181.0" width="9.0" height="5" rx="3" fill="#978fac"/>
<rect x="906.0" y="181.0" width="34.0" height="5" rx="3" fill="#e1e9ef"/>
<rect x="820.0" y="196.0" width="51.0" height="5" rx="3" fill="#a9b6e6"/>
<rect x="876.0" y="196.0" width="10.0" height="5" rx="3" fill="#978fac"/>
<rect x="892.0" y="196.0" width="42.0" height="5" rx="3" fill="#7dd980"/>
<rect x="820.0" y="211.0" width="69.0" height="5" rx="3" fill="#a9b6e6"/>
<rect x="894.0" y="211.0" width="7.0" height="5" rx="3" fill="#978fac"/>
<rect x="906.0" y="211.0" width="39.0" height="5" rx="3" fill="#7dd980"/>
<rect x="808.0" y="236.0" width="131.6" height="5" rx="3" fill="#e1e9ef"/>
<rect x="782" y="394" width="218" height="40" rx="9" fill="#292434" stroke="#363142"/>
<rect x="794.0" y="406.0" width="135.2" height="6" rx="3" fill="#8b84a0" opacity="0.7"/>
<rect x="794" y="440" width="32" height="9" rx="4" fill="none" stroke="#363142"/>
<rect x="832" y="440" width="32" height="9" rx="4" fill="none" stroke="#363142"/>
<rect x="870" y="440" width="32" height="9" rx="4" fill="none" stroke="#363142"/>
<path d="M990 440 l9 4.5 l-9 4.5 z" fill="#bca0ee"/>
<rect x="272" y="452" width="740" height="18" fill="#211e2a"/><line x1="272" y1="452" x2="1012" y2="452" stroke="#363142"/>
<circle cx="285" cy="461.0" r="3" fill="#bca0ee"/>
<rect x="292.0" y="458.0" width="26.0" height="5" rx="3" fill="#bca0ee"/>
<rect x="326.0" y="458.0" width="14.0" height="5" rx="3" fill="#eb9aaf"/>
<rect x="532.0" y="458.0" width="30.0" height="5" rx="3" fill="#978fac"/>
<rect x="568.0" y="458.0" width="40.0" height="5" rx="3" fill="#978fac"/>
<rect x="992" y="457.0" width="9" height="9" rx="2" fill="none" stroke="#8b84a0" stroke-width="1.1"/>
<rect x="976" y="457.0" width="9" height="9" rx="2" fill="none" stroke="#8b84a0" stroke-width="1.1"/>
<rect x="960" y="457.0" width="9" height="9" rx="2" fill="none" stroke="#8b84a0" stroke-width="1.1"/>
<rect x="944" y="457.0" width="9" height="9" rx="2" fill="none" stroke="#8b84a0" stroke-width="1.1"/>
</g>
</svg>