<svg xmlns="http://www.w3.org/2000/svg" width="1136" height="756" viewBox="0 0 1136 756" font-family="ui-monospace,SFMono-Regular,Menlo,Consolas,monospace"><defs><filter id="ds" x="-25%" y="-25%" width="150%" height="150%"><feDropShadow dx="0" dy="9" stdDeviation="15" flood-color="#000000" flood-opacity="0.30"/></filter><filter id="pop" x="-25%" y="-25%" width="150%" height="150%"><feDropShadow dx="0" dy="6" stdDeviation="11" flood-color="#000000" flood-opacity="0.34"/></filter><clipPath id="w1"><rect x="0" y="0" width="1040" height="648" rx="13"/></clipPath><clipPath id="w2"><rect x="0" y="0" width="1040" height="648" rx="13"/></clipPath></defs><g transform="translate(48,48)"><rect x="0.0" y="0.0" width="1040.0" height="648.0" rx="13" fill="#1c1924" filter="url(#ds)"/><g clip-path="url(#w1)"><rect x="0.0" y="0.0" width="1040.0" height="648.0" fill="#1c1924"/><rect x="0.0" y="0.0" width="1040.0" height="38.0" fill="#211e2a"/><line x1="0.0" y1="38.0" x2="1040.0" y2="38.0" stroke="#363142" stroke-width="1"/><circle cx="22.0" cy="19.0" r="5.5" fill="#eb9aaf"/><circle cx="38.0" cy="19.0" r="5.5" fill="#e6cd7a"/><circle cx="54.0" cy="19.0" r="5.5" fill="#7dd980"/><rect x="426.0" y="12.0" width="188.0" height="15.0" rx="7" fill="none" stroke="#363142" stroke-width="1"/><rect x="438.0" y="16.5" width="70.0" height="6.0" rx="3" fill="#978fac"/><circle cx="1014.0" cy="19.0" r="2.3" fill="#978fac"/><circle cx="999.0" cy="19.0" r="2.3" fill="#978fac"/><circle cx="984.0" cy="19.0" r="2.3" fill="#978fac"/><rect x="0.0" y="38.0" width="222.0" height="580.0" fill="#211e2a"/><line x1="222.0" y1="38.0" x2="222.0" y2="618.0" stroke="#363142" stroke-width="1"/><rect x="18.0" y="54.0" width="78.0" height="6.0" rx="3" fill="#978fac"/><path d="M15.6 85.2 L22.4 85.2 L19.0 89.6 Z" fill="#978fac"/><rect x="29.0" y="83.5" width="7.0" height="7.0" rx="2" fill="#978fac"/><rect x="42.0" y="84.0" width="64.0" height="6.0" rx="3" fill="#978fac"/><rect x="36.0" y="103.5" width="7.0" height="7.0" rx="2" fill="#86a3e4"/><rect x="49.0" y="104.0" width="58.0" height="6.0" rx="3" fill="#978fac"/><rect x="36.0" y="123.5" width="7.0" height="7.0" rx="2" fill="#e6cd7a"/><rect x="49.0" y="124.0" width="50.0" height="6.0" rx="3" fill="#978fac"/><path d="M31.6 145.2 L38.4 145.2 L35.0 149.6 Z" fill="#978fac"/><rect x="45.0" y="143.5" width="7.0" height="7.0" rx="2" fill="#978fac"/><rect x="58.0" y="144.0" width="46.0" height="6.0" rx="3" fill="#978fac"/><rect x="8.0" y="158.0" width="206.0" height="19.0" rx="5" fill="#bca0ee" fill-opacity="0.161"/><rect x="52.0" y="163.5" width="7.0" height="7.0" rx="2" fill="#bca0ee"/><rect x="65.0" y="164.0" width="52.0" height="6.0" rx="3" fill="#e1e9ef"/><rect x="52.0" y="183.5" width="7.0" height="7.0" rx="2" fill="#7dd980"/><rect x="65.0" y="184.0" width="44.0" height="6.0" rx="3" fill="#978fac"/><rect x="52.0" y="203.5" width="7.0" height="7.0" rx="2" fill="#978fac"/><rect x="65.0" y="204.0" width="60.0" height="6.0" rx="3" fill="#978fac"/><path d="M33.2 223.6 L37.6 227.0 L33.2 230.4 Z" fill="#978fac"/><rect x="45.0" y="223.5" width="7.0" height="7.0" rx="2" fill="#978fac"/><rect x="58.0" y="224.0" width="42.0" height="6.0" rx="3" fill="#978fac"/><path d="M15.6 245.2 L22.4 245.2 L19.0 249.6 Z" fill="#978fac"/><rect x="29.0" y="243.5" width="7.0" height="7.0" rx="2" fill="#978fac"/><rect x="42.0" y="244.0" width="56.0" height="6.0" rx="3" fill="#978fac"/><rect x="36.0" y="263.5" width="7.0" height="7.0" rx="2" fill="#e6cd7a"/><rect x="49.0" y="264.0" width="50.0" height="6.0" rx="3" fill="#978fac"/><rect x="36.0" y="283.5" width="7.0" height="7.0" rx="2" fill="#86a3e4"/><rect x="49.0" y="284.0" width="62.0" height="6.0" rx="3" fill="#978fac"/><rect x="20.0" y="303.5" width="7.0" height="7.0" rx="2" fill="#978fac"/><rect x="33.0" y="304.0" width="48.0" height="6.0" rx="3" fill="#978fac"/><rect x="20.0" y="323.5" width="7.0" height="7.0" rx="2" fill="#978fac"/><rect x="33.0" y="324.0" width="40.0" height="6.0" rx="3" fill="#978fac"/><rect x="222.0" y="38.0" width="562.0" height="34.0" fill="#211e2a"/><line x1="222.0" y1="72.0" x2="784.0" y2="72.0" stroke="#363142" stroke-width="1"/><rect x="236.0" y="51.0" width="8.0" height="8.0" rx="2" fill="#978fac"/><rect x="250.0" y="52.0" width="56.0" height="6.0" rx="3" fill="#978fac"/><rect x="334.0" y="38.0" width="120.0" height="34.0" fill="#1c1924"/><line x1="335.0" y1="72.0" x2="453.0" y2="72.0" stroke="#1c1924" stroke-width="2"/><line x1="334.0" y1="38.0" x2="334.0" y2="72.0" stroke="#363142" stroke-width="1"/><line x1="454.0" y1="38.0" x2="454.0" y2="72.0" stroke="#363142" stroke-width="1"/><rect x="348.0" y="51.0" width="8.0" height="8.0" rx="2" fill="#86a3e4"/><rect x="362.0" y="52.0" width="64.0" height="6.0" rx="3" fill="#e1e9ef"/><circle cx="440.0" cy="55.0" r="3" fill="#bca0ee"/><rect x="468.0" y="51.0" width="8.0" height="8.0" rx="2" fill="#978fac"/><rect x="482.0" y="52.0" width="48.0" height="6.0" rx="3" fill="#978fac"/><rect x="238.0" y="81.0" width="40.0" height="5.0" rx="3" fill="#978fac"/><path d="M281.2 80.6 L285.6 84.0 L281.2 87.4 Z" fill="#978fac"/><rect x="292.0" y="81.0" width="52.0" height="5.0" rx="3" fill="#978fac"/><path d="M347.2 80.6 L351.6 84.0 L347.2 87.4 Z" fill="#978fac"/><rect x="358.0" y="81.0" width="64.0" height="5.0" rx="3" fill="#978fac"/><rect x="758.0" y="79.0" width="10.0" height="10.0" rx="2" fill="none" stroke="#978fac" stroke-width="1"/><rect x="740.0" y="79.0" width="10.0" height="10.0" rx="2" fill="none" stroke="#978fac" stroke-width="1"/><rect x="722.0" y="79.0" width="10.0" height="10.0" rx="2" fill="none" stroke="#978fac" stroke-width="1"/><text x="267.0" y="116.0" text-anchor="end" font-size="11" fill="#8b84a0">1</text><rect x="290.0" y="110.0" width="46.0" height="6.0" rx="3" fill="#bca0ee"/><rect x="344.0" y="110.0" width="40.0" height="6.0" rx="3" fill="#e1e9ef"/><rect x="392.0" y="110.0" width="30.0" height="6.0" rx="3" fill="#bca0ee"/><rect x="430.0" y="110.0" width="86.0" height="6.0" rx="3" fill="#7dd980"/><text x="267.0" y="138.0" text-anchor="end" font-size="11" fill="#8b84a0">2</text><rect x="290.0" y="132.0" width="40.0" height="6.0" rx="3" fill="#bca0ee"/><rect x="338.0" y="132.0" width="30.0" height="6.0" rx="3" fill="#e1e9ef"/><rect x="376.0" y="132.0" width="26.0" height="6.0" rx="3" fill="#bca0ee"/><rect x="410.0" y="132.0" width="64.0" height="6.0" rx="3" fill="#86a3e4"/><text x="267.0" y="160.0" text-anchor="end" font-size="11" fill="#8b84a0">3</text><text x="267.0" y="182.0" text-anchor="end" font-size="11" fill="#8b84a0">4</text><rect x="290.0" y="176.0" width="318.0" height="6.0" rx="3" fill="#9690a4"/><text x="267.0" y="204.0" text-anchor="end" font-size="11" fill="#8b84a0">5</text><rect x="290.0" y="198.0" width="54.0" height="6.0" rx="3" fill="#bca0ee"/><rect x="352.0" y="198.0" width="72.0" height="6.0" rx="3" fill="#e6cd7a"/><rect x="432.0" y="198.0" width="12.0" height="6.0" rx="3" fill="#978fac"/><text x="267.0" y="226.0" text-anchor="end" font-size="11" fill="#8b84a0">6</text><line x1="284.0" y1="214.0" x2="284.0" y2="233.0" stroke="#2e2a3b" stroke-width="1"/><rect x="312.0" y="220.0" width="56.0" height="6.0" rx="3" fill="#c0c2e8"/><rect x="376.0" y="220.0" width="8.0" height="6.0" rx="3" fill="#978fac"/><rect x="389.0" y="216.0" width="52.0" height="14.0" rx="3" fill="#bca0ee" fill-opacity="0.200"/><rect x="392.0" y="220.0" width="46.0" height="6.0" rx="3" fill="#e6cd7a"/><text x="267.0" y="248.0" text-anchor="end" font-size="11" fill="#8b84a0">7</text><line x1="284.0" y1="236.0" x2="284.0" y2="255.0" stroke="#2e2a3b" stroke-width="1"/><rect x="312.0" y="242.0" width="44.0" height="6.0" rx="3" fill="#c0c2e8"/><rect x="364.0" y="242.0" width="8.0" height="6.0" rx="3" fill="#978fac"/><rect x="380.0" y="242.0" width="66.0" height="6.0" rx="3" fill="#e6cd7a"/><text x="267.0" y="270.0" text-anchor="end" font-size="11" fill="#8b84a0">8</text><line x1="284.0" y1="258.0" x2="284.0" y2="277.0" stroke="#2e2a3b" stroke-width="1"/><rect x="312.0" y="264.0" width="60.0" height="6.0" rx="3" fill="#c0c2e8"/><rect x="380.0" y="264.0" width="8.0" height="6.0" rx="3" fill="#978fac"/><rect x="396.0" y="264.0" width="34.0" height="6.0" rx="3" fill="#7eddd6"/><text x="267.0" y="292.0" text-anchor="end" font-size="11" fill="#8b84a0">9</text><rect x="290.0" y="286.0" width="12.0" height="6.0" rx="3" fill="#978fac"/><text x="267.0" y="314.0" text-anchor="end" font-size="11" fill="#8b84a0">10</text><text x="267.0" y="336.0" text-anchor="end" font-size="11" fill="#8b84a0">11</text><rect x="290.0" y="330.0" width="224.0" height="6.0" rx="3" fill="#9690a4"/><text x="267.0" y="358.0" text-anchor="end" font-size="11" fill="#8b84a0">12</text><rect x="290.0" y="352.0" width="40.0" height="6.0" rx="3" fill="#bca0ee"/><rect x="338.0" y="352.0" width="78.0" height="6.0" rx="3" fill="#86a3e4"/><rect x="424.0" y="352.0" width="6.0" height="6.0" rx="3" fill="#978fac"/><rect x="438.0" y="352.0" width="44.0" height="6.0" rx="3" fill="#a9a2bd"/><rect x="490.0" y="352.0" width="8.0" height="6.0" rx="3" fill="#978fac"/><rect x="506.0" y="352.0" width="50.0" height="6.0" rx="3" fill="#e6cd7a"/><rect x="564.0" y="352.0" width="12.0" height="6.0" rx="3" fill="#978fac"/><rect x="222.0" y="366.0" width="510.0" height="22.0" fill="#bca0ee" fill-opacity="0.122"/><text x="267.0" y="380.0" text-anchor="end" font-size="11" fill="#bca0ee">13</text><line x1="284.0" y1="368.0" x2="284.0" y2="387.0" stroke="#2e2a3b" stroke-width="1"/><rect x="312.0" y="374.0" width="34.0" height="6.0" rx="3" fill="#bca0ee"/><rect x="354.0" y="374.0" width="40.0" height="6.0" rx="3" fill="#e1e9ef"/><rect x="402.0" y="374.0" width="10.0" height="6.0" rx="3" fill="#978fac"/><rect x="420.0" y="374.0" width="42.0" height="6.0" rx="3" fill="#7eddd6"/><text x="267.0" y="402.0" text-anchor="end" font-size="11" fill="#8b84a0">14</text><line x1="284.0" y1="390.0" x2="284.0" y2="409.0" stroke="#2e2a3b" stroke-width="1"/><rect x="312.0" y="396.0" width="50.0" height="6.0" rx="3" fill="#e1e9ef"/><rect x="370.0" y="396.0" width="6.0" height="6.0" rx="3" fill="#978fac"/><rect x="384.0" y="396.0" width="46.0" height="6.0" rx="3" fill="#c0c2e8"/><rect x="438.0" y="396.0" width="8.0" height="6.0" rx="3" fill="#978fac"/><rect x="454.0" y="396.0" width="64.0" height="6.0" rx="3" fill="#7dd980"/><text x="267.0" y="424.0" text-anchor="end" font-size="11" fill="#8b84a0">15</text><line x1="284.0" y1="412.0" x2="284.0" y2="431.0" stroke="#2e2a3b" stroke-width="1"/><rect x="312.0" y="418.0" width="40.0" height="6.0" rx="3" fill="#bca0ee"/><rect x="360.0" y="418.0" width="54.0" height="6.0" rx="3" fill="#e1e9ef"/><rect x="422.0" y="418.0" width="8.0" height="6.0" rx="3" fill="#978fac"/><rect x="438.0" y="418.0" width="40.0" height="6.0" rx="3" fill="#86a3e4"/><rect x="486.0" y="418.0" width="30.0" height="6.0" rx="3" fill="#c0c2e8"/><text x="267.0" y="446.0" text-anchor="end" font-size="11" fill="#8b84a0">16</text><rect x="290.0" y="440.0" width="12.0" height="6.0" rx="3" fill="#978fac"/><text x="267.0" y="468.0" text-anchor="end" font-size="11" fill="#8b84a0">17</text><text x="267.0" y="490.0" text-anchor="end" font-size="11" fill="#8b84a0">18</text><rect x="290.0" y="484.0" width="52.0" height="6.0" rx="3" fill="#bca0ee"/><rect x="350.0" y="484.0" width="64.0" height="6.0" rx="3" fill="#86a3e4"/><rect x="422.0" y="484.0" width="6.0" height="6.0" rx="3" fill="#978fac"/><rect x="436.0" y="484.0" width="40.0" height="6.0" rx="3" fill="#a9a2bd"/><rect x="484.0" y="484.0" width="10.0" height="6.0" rx="3" fill="#978fac"/><text x="267.0" y="512.0" text-anchor="end" font-size="11" fill="#8b84a0">19</text><line x1="284.0" y1="500.0" x2="284.0" y2="519.0" stroke="#2e2a3b" stroke-width="1"/><rect x="312.0" y="506.0" width="38.0" height="6.0" rx="3" fill="#bca0ee"/><rect x="358.0" y="506.0" width="58.0" height="6.0" rx="3" fill="#e1e9ef"/><rect x="424.0" y="506.0" width="8.0" height="6.0" rx="3" fill="#978fac"/><rect x="440.0" y="506.0" width="48.0" height="6.0" rx="3" fill="#c0c2e8"/><rect x="496.0" y="506.0" width="6.0" height="6.0" rx="3" fill="#978fac"/><rect x="510.0" y="506.0" width="24.0" height="6.0" rx="3" fill="#7eddd6"/><text x="267.0" y="534.0" text-anchor="end" font-size="11" fill="#8b84a0">20</text><line x1="284.0" y1="522.0" x2="284.0" y2="541.0" stroke="#2e2a3b" stroke-width="1"/><rect x="312.0" y="528.0" width="44.0" height="6.0" rx="3" fill="#bca0ee"/><rect x="364.0" y="528.0" width="34.0" height="6.0" rx="3" fill="#e6cd7a"/><rect x="406.0" y="528.0" width="8.0" height="6.0" rx="3" fill="#978fac"/><rect x="422.0" y="528.0" width="52.0" height="6.0" rx="3" fill="#7dd980"/><text x="267.0" y="556.0" text-anchor="end" font-size="11" fill="#8b84a0">21</text><rect x="290.0" y="550.0" width="12.0" height="6.0" rx="3" fill="#978fac"/><text x="267.0" y="578.0" text-anchor="end" font-size="11" fill="#8b84a0">22</text><rect x="471.0" y="370.0" width="2.0" height="14.0" fill="#bca0ee"/><rect x="748.0" y="96.0" width="26.0" height="522.0" fill="#1c1924"/><rect x="753.0" y="106.0" width="36.8" height="2.4" rx="1" fill="#978fac" fill-opacity="0.40"/><rect x="753.0" y="113.0" width="30.1" height="2.4" rx="1" fill="#978fac" fill-opacity="0.40"/><rect x="753.0" y="127.0" width="50.9" height="2.4" rx="1" fill="#978fac" fill-opacity="0.40"/><rect x="753.0" y="134.0" width="25.1" height="2.4" rx="1" fill="#978fac" fill-opacity="0.40"/><rect x="756.0" y="141.0" width="20.6" height="2.4" rx="1" fill="#978fac" fill-opacity="0.40"/><rect x="756.0" y="148.0" width="21.9" height="2.4" rx="1" fill="#978fac" fill-opacity="0.40"/><rect x="756.0" y="155.0" width="19.3" height="2.4" rx="1" fill="#978fac" fill-opacity="0.40"/><rect x="753.0" y="162.0" width="4.0" height="2.4" rx="1" fill="#978fac" fill-opacity="0.40"/><rect x="753.0" y="176.0" width="35.8" height="2.4" rx="1" fill="#978fac" fill-opacity="0.40"/><rect x="753.0" y="183.0" width="47.1" height="2.4" rx="1" fill="#978fac" fill-opacity="0.40"/><rect x="756.0" y="190.0" width="24.7" height="2.4" rx="1" fill="#978fac" fill-opacity="0.40"/><rect x="756.0" y="197.0" width="33.8" height="2.4" rx="1" fill="#978fac" fill-opacity="0.40"/><rect x="756.0" y="204.0" width="33.5" height="2.4" rx="1" fill="#978fac" fill-opacity="0.40"/><rect x="753.0" y="211.0" width="4.0" height="2.4" rx="1" fill="#978fac" fill-opacity="0.40"/><rect x="753.0" y="225.0" width="33.5" height="2.4" rx="1" fill="#978fac" fill-opacity="0.40"/><rect x="756.0" y="232.0" width="36.6" height="2.4" rx="1" fill="#978fac" fill-opacity="0.40"/><rect x="756.0" y="239.0" width="26.6" height="2.4" rx="1" fill="#978fac" fill-opacity="0.40"/><rect x="753.0" y="246.0" width="4.0" height="2.4" rx="1" fill="#978fac" fill-opacity="0.40"/><rect x="750.0" y="155.0" width="22.0" height="91.0" rx="3" fill="#bca0ee" fill-opacity="0.10"/><rect x="784.0" y="38.0" width="256.0" height="580.0" fill="#211e2a"/><line x1="784.0" y1="38.0" x2="784.0" y2="618.0" stroke="#363142" stroke-width="1"/><path d="M804.0 49.5 L805.6 53.4 L809.5 55.0 L805.6 56.6 L804.0 60.5 L802.4 56.6 L798.5 55.0 L802.4 53.4 Z" fill="#bca0ee"/><rect x="816.0" y="52.0" width="58.0" height="6.0" rx="3" fill="#e1e9ef"/><line x1="784.0" y1="72.0" x2="1040.0" y2="72.0" stroke="#363142" stroke-width="1"/><circle cx="996.0" cy="55.0" r="2.2" fill="#978fac"/><line x1="1013.5" y1="55.0" x2="1022.5" y2="55.0" stroke="#978fac" stroke-width="1.4"/><line x1="1018.0" y1="50.5" x2="1018.0" y2="59.5" stroke="#978fac" stroke-width="1.4"/><path d="M804.0 91.5 L805.6 95.3 L809.5 97.0 L805.6 98.7 L804.0 102.5 L802.4 98.7 L798.5 97.0 L802.4 95.3 Z" fill="#bca0ee"/><rect x="818.0" y="94.0" width="150.0" height="6.0" rx="3" fill="#e1e9ef"/><rect x="818.0" y="107.0" width="104.0" height="6.0" rx="3" fill="#978fac"/><rect x="800.0" y="132.0" width="224.0" height="88.0" rx="8" fill="#1c1924" stroke="#363142" stroke-width="1"/><rect x="814.0" y="148.0" width="26.0" height="6.0" rx="3" fill="#bca0ee"/><rect x="847.0" y="148.0" width="50.0" height="6.0" rx="3" fill="#86a3e4"/><rect x="814.0" y="165.0" width="30.0" height="6.0" rx="3" fill="#c0c2e8"/><rect x="851.0" y="165.0" width="6.0" height="6.0" rx="3" fill="#978fac"/><rect x="864.0" y="165.0" width="54.0" height="6.0" rx="3" fill="#7dd980"/><rect x="814.0" y="182.0" width="40.0" height="6.0" rx="3" fill="#e1e9ef"/><rect x="861.0" y="182.0" width="6.0" height="6.0" rx="3" fill="#978fac"/><rect x="874.0" y="182.0" width="24.0" height="6.0" rx="3" fill="#7eddd6"/><rect x="814.0" y="199.0" width="34.0" height="6.0" rx="3" fill="#bca0ee"/><rect x="855.0" y="199.0" width="44.0" height="6.0" rx="3" fill="#e1e9ef"/><rect x="800.0" y="240.0" width="158.0" height="20.0" rx="6" fill="none" stroke="#363142" stroke-width="1"/><circle cx="812.0" cy="250.0" r="3" fill="#7dd980"/><rect x="822.0" y="247.0" width="104.0" height="6.0" rx="3" fill="#978fac"/><rect x="800.0" y="280.0" width="224.0" height="50.0" rx="8" fill="#bca0ee" fill-opacity="0.122"/><rect x="812.0" y="295.0" width="172.0" height="6.0" rx="3" fill="#e1e9ef"/><rect x="812.0" y="311.0" width="116.0" height="6.0" rx="3" fill="#978fac"/><path d="M804.0 347.5 L805.6 351.4 L809.5 353.0 L805.6 354.6 L804.0 358.5 L802.4 354.6 L798.5 353.0 L802.4 351.4 Z" fill="#bca0ee"/><rect x="818.0" y="350.0" width="154.0" height="6.0" rx="3" fill="#e1e9ef"/><rect x="818.0" y="363.0" width="134.0" height="6.0" rx="3" fill="#978fac"/><rect x="818.0" y="376.0" width="90.0" height="6.0" rx="3" fill="#978fac"/><rect x="798.0" y="528.0" width="228.0" height="74.0" rx="10" fill="#1c1924" stroke="#bca0ee" stroke-opacity="0.400" stroke-width="1"/><rect x="810.0" y="545.0" width="132.0" height="6.0" rx="3" fill="#978fac"/><rect x="810.0" y="558.0" width="80.0" height="6.0" rx="3" fill="#978fac"/><line x1="806.5" y1="584.0" x2="815.5" y2="584.0" stroke="#978fac" stroke-width="1.4"/><line x1="811.0" y1="579.5" x2="811.0" y2="588.5" stroke="#978fac" stroke-width="1.4"/><rect x="826.0" y="576.0" width="64.0" height="16.0" rx="8" fill="none" stroke="#363142" stroke-width="1"/><rect x="834.0" y="581.5" width="32.0" height="5.0" rx="3" fill="#978fac"/><path d="M879.6 582.2 L886.4 582.2 L883.0 586.6 Z" fill="#978fac"/><circle cx="1010.0" cy="584.0" r="10" fill="#bca0ee"/><path d="M1010.0 588.0 L1010.0 580.0 M1010.0 580.0 L1007.0 583.0 M1010.0 580.0 L1013.0 583.0" fill="none" stroke="#1c1924" stroke-width="1.5" stroke-linecap="round" stroke-linejoin="round"/><rect x="455.0" y="390.0" width="250.0" height="132.0" rx="9" fill="#2a2635" stroke="#bca0ee" stroke-opacity="0.400" stroke-width="1" filter="url(#pop)"/><rect x="471.0" y="410.0" width="11.0" height="11.0" rx="3" fill="#bca0ee"/><rect x="491.0" y="412.0" width="96.0" height="6.0" rx="3" fill="#978fac"/><rect x="641.0" y="413.0" width="44.0" height="5.0" rx="2" fill="#978fac"/><rect x="461.0" y="432.0" width="238.0" height="26.0" rx="6" fill="#bca0ee" fill-opacity="0.161"/><rect x="471.0" y="440.0" width="11.0" height="11.0" rx="3" fill="#86a3e4"/><rect x="491.0" y="442.0" width="120.0" height="6.0" rx="3" fill="#e1e9ef"/><rect x="641.0" y="443.0" width="44.0" height="5.0" rx="2" fill="#978fac"/><rect x="471.0" y="470.0" width="11.0" height="11.0" rx="3" fill="#e6cd7a"/><rect x="491.0" y="472.0" width="80.0" height="6.0" rx="3" fill="#978fac"/><rect x="641.0" y="473.0" width="44.0" height="5.0" rx="2" fill="#978fac"/><rect x="471.0" y="500.0" width="11.0" height="11.0" rx="3" fill="#e1e9ef"/><rect x="491.0" y="502.0" width="108.0" height="6.0" rx="3" fill="#978fac"/><rect x="641.0" y="503.0" width="44.0" height="5.0" rx="2" fill="#978fac"/><rect x="0.0" y="618.0" width="1040.0" height="30.0" fill="#211e2a"/><line x1="0.0" y1="618.0" x2="1040.0" y2="618.0" stroke="#363142" stroke-width="1"/><circle cx="20.0" cy="633.0" r="3" fill="#bca0ee"/><rect x="28.0" y="630.0" width="30.0" height="6.0" rx="3" fill="#bca0ee"/><circle cx="76.0" cy="633.0" r="3" fill="#eb9aaf"/><rect x="83.0" y="630.5" width="9.0" height="5.0" rx="3" fill="#978fac"/><circle cx="104.0" cy="633.0" r="3" fill="#e6cd7a"/><rect x="111.0" y="630.5" width="9.0" height="5.0" rx="3" fill="#978fac"/><rect x="982.0" y="630.5" width="40.0" height="5.0" rx="3" fill="#978fac"/><rect x="934.0" y="630.5" width="30.0" height="5.0" rx="3" fill="#978fac"/><rect x="866.0" y="630.5" width="50.0" height="5.0" rx="3" fill="#978fac"/></g><rect x="0.0" y="0.0" width="1040.0" height="648.0" rx="13" fill="none" stroke="#363142" stroke-width="1"/></g></svg>
